<svg xmlns="http://www.w3.org/2000/svg" viewBox="0 0 212.94 249.59"><defs><style>.cls-1{fill:#bec0c6;}.cls-1,.cls-2,.cls-4{stroke:#fff;stroke-miterlimit:10;}.cls-2{fill:#4583f2;}.cls-3{fill:#fff;}.cls-4{fill:none;}</style></defs><g id="Layer_2" data-name="Layer 2"><g id="OBJECTS"><path class="cls-1" d="M122.48,149.73l17.87-11.08a27.47,27.47,0,0,0,13-24.51l-1.24-29.83-31.36,19.48Z"/><path class="cls-2" d="M119.86,97.07l31.28-19.34-2.31-55.52a11.93,11.93,0,0,0-.27-2.3l-30.9,19.35Z"/><path class="cls-2" d="M1,74.56,23.14,86.37a20,20,0,0,0,20-.68L148.56,19.92A22.31,22.31,0,0,0,136.93,3.14a22.55,22.55,0,0,0-22.47.74Z"/><path class="cls-2" d="M61.21,159.69l30.91-19.13-1.5-42.2-17.5,11a27.48,27.48,0,0,0-12.84,24.25Z"/><path class="cls-1" d="M76,246.47a22.34,22.34,0,0,0,20.41.31L93,149.42,62,168.62l2.1,58.77A22.61,22.61,0,0,0,76,246.47Z"/><path class="cls-1" d="M96.43,246.78a10.48,10.48,0,0,0,2-1.06L211.94,175l-19.09-10.18a26,26,0,0,0-26,.87L95.13,210.44Z"/><path class="cls-3" d="M146.17,184.66l35.58-22.83a12.29,12.29,0,0,1,1.6,0,13.44,13.44,0,0,1,4,.85s-1.05-.24-1.05-.24l1.05.24-39.15,25.12Z"/><path class="cls-4" d="M146.17,184.66l35.58-22.83a12.29,12.29,0,0,1,1.6,0,13.44,13.44,0,0,1,4,.85s-1.05-.24-1.05-.24l1.05.24-39.15,25.12Z"/><path class="cls-3" d="M146.17,184.66l35.58-22.83a12.29,12.29,0,0,1,1.6,0,13.44,13.44,0,0,1,4,.85s-1.05-.24-1.05-.24l1.05.24-39.15,25.12Z"/><path class="cls-3" d="M163.94,184.53l29.86-19.16,4.09,2.17L166,187.68Z"/><path class="cls-4" d="M163.94,184.53l29.86-19.16,4.09,2.17L166,187.68Z"/><path class="cls-3" d="M163.94,184.53l29.86-19.16,4.09,2.17L166,187.68Z"/><path class="cls-3" d="M178.69,185.14,203,170.29l3.64,1.91-25.93,16.1Z"/><path class="cls-4" d="M178.69,185.14,203,170.29l3.64,1.91-25.93,16.1Z"/><path class="cls-3" d="M178.69,185.14,203,170.29l3.64,1.91-25.93,16.1Z"/><path class="cls-3" d="M5.82,77.13,51.58,47.77l2,3.06L9.5,79.09Z"/><path class="cls-4" d="M5.82,77.13,51.58,47.77l2,3.06L9.5,79.09Z"/><path class="cls-3" d="M5.82,77.13,51.58,47.77l2,3.06L9.5,79.09Z"/><path class="cls-3" d="M15.26,82.15,46.69,61.28l2,3.15Q33.46,74.09,18.19,83.74Z"/><path class="cls-4" d="M15.26,82.15,46.69,61.28l2,3.15Q33.46,74.09,18.19,83.74Z"/><path class="cls-3" d="M15.26,82.15,46.69,61.28l2,3.15Q33.46,74.09,18.19,83.74Z"/><path class="cls-3" d="M23.68,86.67l24.1-15.75,2,3.15L27.6,88.1a21.52,21.52,0,0,1-2.1-.66C24.84,87.19,24.23,86.93,23.68,86.67Z"/><path class="cls-4" d="M23.68,86.67l24.1-15.75,2,3.15L27.6,88.1a21.52,21.52,0,0,1-2.1-.66C24.84,87.19,24.23,86.93,23.68,86.67Z"/><path class="cls-3" d="M23.68,86.67l24.1-15.75,2,3.15L27.6,88.1a21.52,21.52,0,0,1-2.1-.66C24.84,87.19,24.23,86.93,23.68,86.67Z"/></g></g></svg>