<svg xmlns="http://www.w3.org/2000/svg" viewBox="0 0 218.23 342.43"><defs><style>.cls-1{font-size:90px;}.cls-1,.cls-4{fill:#fff;}.cls-1,.cls-2{font-family:LaBelleAurore, La Belle Aurore;}.cls-2{font-size:36px;fill:#5c5d60;}.cls-3{fill:#bec0c6;}</style></defs><g id="Layer_2" data-name="Layer 2"><g id="OBJECTS"><text class="cls-1" transform="translate(0 272.65)">Zeens</text><text class="cls-2" transform="translate(122.4 303.72)">Digital</text><path class="cls-3" d="M110.19,135.36l16.21-10.05a25,25,0,0,0,11.78-22.23L137.05,76,108.6,93.69Z"/><path class="cls-4" d="M107.81,87.59l28.38-17.54-2.1-50.36a11.24,11.24,0,0,0-.24-2.08l-28,17.55Z"/><path class="cls-4" d="M0,67.18,20.08,77.89a18.13,18.13,0,0,0,18.13-.61l95.64-59.67A20.24,20.24,0,0,0,123.3,2.39a20.47,20.47,0,0,0-20.38.68Z"/><path class="cls-4" d="M54.61,144.4l28.05-17.35L81.29,88.76l-15.88,10a24.93,24.93,0,0,0-11.64,22Z"/><path class="cls-3" d="M68.05,223.11a20.26,20.26,0,0,0,18.51.28l-3.15-88.31L55.35,152.5l1.9,53.3A20.52,20.52,0,0,0,68.05,223.11Z"/><path class="cls-3" d="M86.56,223.39a9.36,9.36,0,0,0,1.86-1l102.92-64.11L174,149.08a23.55,23.55,0,0,0-23.55.8L85.38,190.43Z"/><path class="cls-4" d="M131.68,167,164,146.33a12.39,12.39,0,0,1,1.46,0,12.58,12.58,0,0,1,3.62.76s-1-.22-1-.21l1,.21L133.51,169.9Z"/><path class="cls-4" d="M131.68,167,164,146.33a12.39,12.39,0,0,1,1.46,0,12.58,12.58,0,0,1,3.62.76s-1-.22-1-.21l1,.21L133.51,169.9Z"/><path class="cls-4" d="M147.8,166.92q13.55-8.68,27.08-17.38l3.71,2q-14.47,9.14-29,18.26Z"/><path class="cls-4" d="M147.8,166.92q13.55-8.68,27.08-17.38l3.71,2q-14.47,9.14-29,18.26Z"/><path class="cls-4" d="M161.17,167.48,183.23,154l3.3,1.73L163,170.34Z"/><path class="cls-4" d="M161.17,167.48,183.23,154l3.3,1.73L163,170.34Z"/><path class="cls-4" d="M4.37,69.51,45.88,42.88l1.78,2.77L7.71,71.29Z"/><path class="cls-4" d="M4.37,69.51,45.88,42.88l1.78,2.77L7.71,71.29Z"/><path class="cls-4" d="M12.93,74.06,41.44,55.13,43.28,58,15.6,75.51Z"/><path class="cls-4" d="M12.93,74.06,41.44,55.13,43.28,58,15.6,75.51Z"/><path class="cls-4" d="M20.57,78.16,42.44,63.88l1.83,2.85L24.13,79.45a18.37,18.37,0,0,1-1.9-.59A17.67,17.67,0,0,1,20.57,78.16Z"/><path class="cls-4" d="M20.57,78.16,42.44,63.88l1.83,2.85L24.13,79.45a18.37,18.37,0,0,1-1.9-.59A17.67,17.67,0,0,1,20.57,78.16Z"/></g></g></svg>