<svg xmlns="http://www.w3.org/2000/svg" viewBox="0 0 347.21 201.32"><defs><style>.cls-1{font-size:90px;}.cls-1,.cls-2,.cls-4{fill:#fff;}.cls-1,.cls-2{font-family:LaBelleAurore, La Belle Aurore;}.cls-2{font-size:36px;}.cls-3{fill:#bec0c6;}.cls-5{fill:#4583f2;}</style></defs><g id="Layer_2" data-name="Layer 2"><g id="OBJECTS"><text class="cls-1" transform="translate(128.97 100.66)">Zeens</text><text class="cls-2" transform="translate(244.08 127.53)">Digital</text><path class="cls-3" d="M98.38,120.85l14.47-9A22.27,22.27,0,0,0,123.37,92l-1-24.16L97,83.65Z"/><path class="cls-4" d="M96.26,78.21l25.33-15.67-1.87-45a9.83,9.83,0,0,0-.22-1.86l-25,15.67Z"/><path class="cls-4" d="M0,60l17.93,9.56A16.16,16.16,0,0,0,34.12,69L119.5,15.72a18.15,18.15,0,0,0-27.61-13Z"/><path class="cls-4" d="M48.76,128.92l25-15.49L72.58,79.25,58.4,88.17A22.24,22.24,0,0,0,48,107.8Z"/><path class="cls-3" d="M60.75,199.19a18.09,18.09,0,0,0,16.53.26L74.47,120.6l-25,15.55,1.7,47.6A18.27,18.27,0,0,0,60.75,199.19Z"/><path class="cls-3" d="M77.28,199.45a8.79,8.79,0,0,0,1.67-.86l91.88-57.24-15.46-8.24a21,21,0,0,0-21,.7L76.23,170Z"/><path class="cls-4" d="M117.56,149.14l28.82-18.49a9.51,9.51,0,0,1,1.3,0,10.64,10.64,0,0,1,3.23.69s-.85-.2-.85-.2l.85.2L119.2,151.69Z"/><path class="cls-5" d="M117.56,149.14l28.82-18.49a9.51,9.51,0,0,1,1.3,0,10.64,10.64,0,0,1,3.23.69s-.85-.2-.85-.2l.85.2L119.2,151.69Z"/><path class="cls-4" d="M132,149l24.18-15.51,3.31,1.76L133.6,151.59Z"/><path class="cls-5" d="M132,149l24.18-15.51,3.31,1.76L133.6,151.59Z"/><path class="cls-4" d="M143.9,149.53l19.69-12,2.95,1.55-21,13Z"/><path class="cls-5" d="M143.9,149.53l19.69-12,2.95,1.55-21,13Z"/><path class="cls-4" d="M3.91,62.06,41,38.28l1.59,2.48L6.88,63.65Z"/><path class="cls-5" d="M3.91,62.06,41,38.28l1.59,2.48L6.88,63.65Z"/><path class="cls-4" d="M11.55,66.12,37,49.22l1.64,2.55L13.92,67.41Z"/><path class="cls-5" d="M11.55,66.12,37,49.22l1.64,2.55L13.92,67.41Z"/><path class="cls-4" d="M18.37,69.78,37.89,57l1.64,2.55-18,11.36c-.52-.14-1.09-.31-1.7-.53A14.75,14.75,0,0,1,18.37,69.78Z"/><path class="cls-5" d="M18.37,69.78,37.89,57l1.64,2.55-18,11.36c-.52-.14-1.09-.31-1.7-.53A14.75,14.75,0,0,1,18.37,69.78Z"/></g></g></svg>